<svg width="128" height="128" viewBox="0 0 128 128" fill="none" xmlns="http://www.w3.org/2000/svg">
<path d="M-7.62939e-06 56.6372C-7.62939e-06 87.917 24.9163 113.274 55.6522 113.274C86.388 113.274 111.304 87.917 111.304 56.6372C111.304 25.3573 86.388 0 55.6522 0C24.9163 0 -7.62939e-06 25.3573 -7.62939e-06 56.6372Z" fill="#5371CA"/>
<path d="M81.2522 99.115C81.2522 108.186 88.4779 115.54 97.3913 115.54C106.305 115.54 113.53 108.186 113.53 99.115C113.53 90.0439 106.305 82.6903 97.3913 82.6903C88.4779 82.6903 81.2522 90.0439 81.2522 99.115Z" fill="#5371CA"/>
<path d="M111.304 119.504C111.304 124.196 115.042 128 119.652 128C124.263 128 128 124.196 128 119.504C128 114.812 124.263 111.009 119.652 111.009C115.042 111.009 111.304 114.812 111.304 119.504Z" fill="#5371CA"/>
<path d="M67.7454 33C78.1653 33 85.1667 42.9178 85.1667 52.17C85.1667 70.9073 56.1093 86.25 55.5833 86.25C55.0574 86.25 26 70.9073 26 52.17C26 42.9178 33.0014 33 43.4213 33C49.4037 33 53.3153 36.0286 55.5833 38.6911C57.8514 36.0286 61.763 33 67.7454 33Z" fill="#FCE3EB" stroke="#FCE3EB" stroke-width="2" stroke-linecap="round" stroke-linejoin="round"/>
</svg>
