<?xml version="1.0" encoding="UTF-8"?>
<svg id="Layer_1" xmlns="http://www.w3.org/2000/svg" version="1.1" viewBox="0 0 183.8 60.6">
  <!-- Generator: Adobe Illustrator 29.8.2, SVG Export Plug-In . SVG Version: 2.1.1 Build 3)  -->
  <defs>
    <style>
      .st0 {
        fill: #fff;
      }
    </style>
  </defs>
  <path class="st0" d="M90.3,44v-.6c.9-.5,1.5-1.2,1.7-2.2.1-.6.2-1.6.2-3v-10.4c0-1.5,0-2.4-.3-2.8-.2-.4-.7-.5-1.4-.5h-.2l-.3-.6c.1,0,.2-.1.3-.1,0,0,.2,0,.4-.1,1.9-.8,3.7-1.7,5.5-2.6,1.8-.9,3.6-1.9,5.4-3l7.2,9.2-10.7,8.9v5.4c.9.4,1.8.8,2.6,1.2.8.4,1.7.9,2.5,1.3l4.3-2.8.6.8-8.6,5.7c-3.3-2-6.3-3.3-9.1-3.7M98,21.6v12l5.8-4.8-5.8-7.2Z"/>
  <path class="st0" d="M61.2,42.3c-.6.4-1,.6-1.3.6-1.1,0-1.6-1.1-1.6-3.3v-15.5l1.9-1.8-4.9-4.3-4.8,4.3,2.1,1.8v14.3l-4.7,4.1-2.1-1.6v-16.8l2-1.8-4.9-4.3-5.2,4.6,1.1.7h0s1.3.9,1.3.9v14.2c0,1.6,0,2.6-.2,3.1-.2.4-.6.7-1.4,1v.8c2,.9,4.2,2.4,6.5,4.4l7.7-7v.6c0,1.5.2,2.6.6,3.4.2.4.5.8.9,1.2.4.4.9.8,1.5,1.3.1.1.4.3.7.5l5.9-4.4-.9-1Z"/>
  <path class="st0" d="M87.2,41.9c0,0-.1.1-.2.2-.6.4-1.1.7-1.4.7-.7,0-1.2-.6-1.4-1.9,0-.1,0-.4,0-.9v-13.3c0-3.7-.7-4.7-1.9-5.9-1.2-1.2-3-2.7-3-2.7l-7.3,6c0-.1,0-.4,0-.7,0-1.1-.2-2-.7-2.7-.3-.5-1-1.2-2.1-2.1-.2-.2-.5-.4-.6-.5l-5.8,4.4.7.9c.8-.4,1.2-.6,1.5-.6s.5,0,.7.1c.2,0,.3.3.4.5,0,.3.2.6.2,1.1,0,.5,0,1.1,0,1.9v15l-2.3,2.1,5,4.2,5.1-4-2-2.1v-15.3l4.5-3.8s0,0,.9.9c.9.9,1,1.1,1,2.9,0,1.7,0,12.9,0,12.9,0,2.5.2,4.1.5,5,.3.9,1.1,1.9,2.5,3.1,0,0,.1.1.3.2.1,0,.2.2.4.3l6.2-4.9-.7-1.2c-.1,0-.2.2-.3.2"/>
  <path class="st0" d="M126.9,19.6l-16-11.7v6.7l7.3,5.6c-1.2,1-3.1,1.8-5.7,2.4v13c0,2.6,0,4.3-.3,5-.2.7-.6,1.4-1.4,2.1v.6c1,0,2,.2,2.9.4.9.2,1.8.5,2.6.8.8.3,1.7.7,2.7,1.3,1,.5,2,1.2,3,1.9,2.3-1.7,5.2-3.3,8.6-4.7v-18.3c0-1,0-1.8,0-2.3l-3.9-2.9ZM125,42.9l-6.3-3v-17.3c.4-.3.7-.5.9-.7.2-.2.4-.3.6-.4l4.8,3.5v17.9Z"/>
  <path class="st0" d="M145.1,43.4h0s-1.7-1.4-1.7-1.4v-18.1l2-1.8-5-4-4.9,3.9,2,1.7v14.4c0,1.4,0,2.2-.1,2.6-.2.9-.8,1.5-1.7,1.8v.5c1.6,1,3.5,2.6,5.7,4.7l4.6-3.5-.9-.8Z"/>
  <path class="st0" d="M29.1,19.6L13.2,7.9v6.7l7.3,5.6c-1.2,1-3.1,1.8-5.7,2.4v13c0,2.6,0,4.3-.3,5-.2.7-.6,1.4-1.4,2.1v.6c1,0,2,.2,2.9.4.9.2,1.8.5,2.6.8.8.3,1.7.7,2.7,1.3,1,.5,2,1.2,3,1.9,2.3-1.7,5.2-3.3,8.6-4.7v-18.3c0-1,0-1.8,0-2.3l-3.9-2.9ZM27.2,42.9l-6.3-3v-17.3c.4-.3.7-.5.9-.7.2-.2.4-.3.6-.4l4.8,3.5v17.9Z"/>
  <path class="st0" d="M172.5,41.9c0,0-.1.1-.2.2-.6.4-1.1.7-1.4.7-.7,0-1.2-.6-1.4-1.9,0-.1,0-.4,0-.9v-13.3c0-3.7-.7-4.7-1.9-5.9-1.2-1.2-3-2.7-3-2.7l-7.3,6c0-.1,0-.4,0-.7,0-1.1-.2-2-.7-2.7-.3-.5-1-1.2-2.1-2.1-.2-.2-.5-.4-.6-.5l-5.8,4.4.7.9c.8-.4,1.2-.6,1.5-.6s.5,0,.7.1c.2,0,.3.3.4.5,0,.3.2.6.2,1.1,0,.5,0,1.1,0,1.9v15l-2.3,2.1,5,4.2,5.1-4-2-2.1v-15.3l4.5-3.8s0,0,.9.9c.9.9,1,1.1,1,2.9,0,1.7,0,12.9,0,12.9,0,2.5.2,4.1.5,5,.3.9,1.1,1.9,2.5,3.1,0,0,.1.1.3.2.1,0,.2.2.4.3l6.2-4.9-.7-1.2c-.1,0-.2.2-.3.2"/>
</svg>